#!OML:ASF E:\emotionWalksFemale\Project 1\Capture day 1\Session 1\Female1.ASF
:FULLY-SPECIFIED
:DEGREES
391
root 9.45629 15.5964 0.561465 -364.051 -84.7275 3.71244
lowerback 7.81688 1.33447 0.164608
upperback -3.96276 1.79612 0.0573219
thorax -8.57837 0.859828 -0.302066
lowerneck -6.4876 -5.9548 -9.69226
upperneck 10.4759 -7.73853 6.04845
head 4.81885 -3.8737 2.9357
rclavicle 2.09842e-014 2.28602e-015
rhumerus -47.7772 10.5233 -92.3446
rradius 36.0223
rwrist 19.1288
rhand 1.28693 -54.1813
rfingers 7.12502
rthumb 26.8224 -442.299
lclavicle 2.09842e-014 2.28602e-015
lhumerus -40.3679 4.19062 83.6311
lradius 39.8759
lwrist -1.98178
lhand -4.15692 -30.6977
lfingers 7.12502
lthumb 21.6033 -1.88274
rfemur 5.20212 20.9378 31.0281
rtibia 13.2301
rfoot -17.8234 -30.6749
rtoes 3.05939
lfemur -3.18982 -22.4 -26.0612
ltibia 24.5335
lfoot -24.4904 18.7385
ltoes 4.37734
392
root 9.46194 15.5874 0.553075 -363.913 -84.9663 3.53392
lowerback 7.72685 1.2958 0.200023
upperback -3.95611 1.75193 0.11129
thorax -8.51924 0.838313 -0.255799
lowerneck -6.45896 -5.8257 -9.773
upperneck 10.5909 -7.57707 6.14969
head 4.84321 -3.79453 2.99264
rclavicle -2.79541e-015 4.96962e-016
rhumerus -47.8553 11.2968 -92.8534
rradius 36.2097
rwrist 18.5525
rhand 1.58452 -54.6972
rfingers 7.12502
rthumb 27.1072 -442.771
lclavicle -2.79541e-015 4.96962e-016
lhumerus -39.8975 5.52958 83.2956
lradius 39.2754
lwrist -3.13781
lhand -4.04929 -30.6156
lfingers 7.12502
lthumb 21.7066 -1.81259
rfemur 5.13919 21.3501 31.1662
rtibia 13.4898
rfoot -17.9715 -30.8219
rtoes 3.15536
lfemur -3.32974 -21.74 -26.0484
ltibia 24.4355
lfoot -21.9749 20.989
ltoes -12.9381
393
root 9.46647 15.5943 0.545765 -363.455 -85.1716 2.99737
lowerback 7.6555 1.27072 0.32536
upperback -3.90739 1.73004 0.0826281
thorax -8.42003 0.820477 -0.3506
lowerneck -6.54923 -5.72013 -9.58284
upperneck 10.736 -7.44989 6.11457
head 4.88375 -3.72684 2.95808
rclavicle 1.42193e-014 -2.08724e-015
rhumerus -47.8514 11.8073 -93.3316
rradius 36.3397
rwrist 18.2838
rhand 2.46391 -54.649
rfingers 7.12502
rthumb 27.9482 -442.589
lclavicle 1.42193e-014 -2.08724e-015
lhumerus -39.4613 6.30221 83.0054
lradius 38.897
lwrist -4.03556
lhand -4.00569 -30.1776
lfingers 7.12502
lthumb 21.7485 -1.37945
rfemur 5.1647 21.4465 31.2694
rtibia 13.5571
rfoot -17.9112 -30.7409
rtoes 2.93491
lfemur -3.04534 -22.4429 -25.985
ltibia 24.4401
lfoot -24.5352 19.2545
ltoes 3.45451
394
root 9.47429 15.5862 0.534546 -363.495 -85.3028 2.90973
lowerback 7.73761 1.25663 0.34027
upperback -3.86935 1.70974 0.0307771
thorax -8.42492 0.808355 -0.412254
lowerneck -6.75195 -5.64791 -9.36346
upperneck 10.9542 -7.36631 6.09365
head 4.9689 -3.67676 2.91636
rclavicle 2.82958e-014 2.68359e-015
rhumerus -47.9038 12.1847 -93.7585
rradius 36.5283
rwrist 18.1932
rhand 3.12536 -54.5078
rfingers 7.12502
rthumb 28.5803 -442.343
lclavicle 2.82958e-014 2.68359e-015
lhumerus -39.1108 6.62662 82.7097
lradius 38.7672
lwrist -4.6766
lhand -3.73202 -29.6485
lfingers 7.12502
lthumb 22.0113 -0.880968
rfemur 5.26862 21.6839 31.421
rtibia 13.6232
rfoot -17.9288 -30.8599
rtoes 3.07036
lfemur -3.03956 -21.98 -25.9832
ltibia 24.424
lfoot -23.2678 20.5218
ltoes -6.24392
395
root 9.48219 15.5926 0.525457 -363.413 -85.4138 2.80886
lowerback 7.75525 1.25438 0.450276
upperback -3.90736 1.71278 -0.0483986
thorax -8.47058 0.800566 -0.559084
lowerneck -6.88169 -5.56267 -9.29351
upperneck 11.2429 -7.27513 6.18607
head 5.07298 -3.62483 2.93608
rclavicle -3.32343e-015 1.39149e-015
rhumerus -47.9675 12.4518 -94.1743
rradius 36.6701
rwrist 18.306
rhand 3.97962 -54.371
rfingers 7.12502
rthumb 29.3962 -442.066
lclavicle -3.32343e-015 1.39149e-015
lhumerus -38.9431 6.82032 82.4603
lradius 38.71
lwrist -5.30072
lhand -3.66247 -29.1307
lfingers 7.12502
lthumb 22.078 -0.371047
rfemur 5.30142 22.0488 31.5385
rtibia 13.6128
rfoot -17.8586 -31.0998
rtoes 3.23652
lfemur -2.91103 -22.4031 -25.8969
ltibia 24.4418
lfoot -25.1101 19.0082
ltoes 6.60519
396
root 9.48779 15.5895 0.519306 -363.675 -85.5528 3.08193
lowerback 7.6977 1.24873 0.486856
upperback -3.95696 1.70634 -0.0737085
thorax -8.4888 0.793995 -0.604648
lowerneck -6.83923 -5.4661 -9.17335
upperneck 11.4211 -7.16604 6.12775
head 5.10542 -3.57326 2.90741
rclavicle 1.98878e-014 2.48481e-015
rhumerus -48.01 12.7423 -94.5458
rradius 36.7431
rwrist 18.6389
rhand 4.98936 -54.1958
rfingers 7.12502
rthumb 30.3598 -441.717
lclavicle 1.98878e-014 2.48481e-015
lhumerus -38.9288 6.96709 82.3691
lradius 38.644
lwrist -5.9601
lhand -3.86344 -28.9536
lfingers 7.12502
lthumb 21.8851 -0.171351
rfemur 5.19494 22.0592 31.52
rtibia 13.7364
rfoot -17.8011 -30.9881
rtoes 3.11588
lfemur -2.99433 -22.0638 -25.8779
ltibia 24.3786
lfoot -24.0905 20.015
ltoes -1.28075
397
root 9.49359 15.5867 0.514087 -364.62 -85.662 3.98281
lowerback 7.66036 1.23979 0.387473
upperback -3.96149 1.68303 -0.0695754
thorax -8.4751 0.788408 -0.540161
lowerneck -6.69633 -5.41077 -8.91105
upperneck 11.3901 -7.10882 5.93285
head 5.05058 -3.54879 2.81302
rclavicle -5.22742e-014 -2.38542e-015
rhumerus -48.2146 13.3772 -95.1081
rradius 37.0145
rwrist 18.3997
rhand 5.55785 -54.1821
rfingers 7.12502
rthumb 30.9019 -441.602
lclavicle -5.22742e-014 -2.38542e-015
lhumerus -38.803 7.00819 82.3496
lradius 38.4882
lwrist -6.41259
lhand -3.99924 -28.8813
lfingers 7.12502
lthumb 21.7547 -0.0837858
rfemur 5.16227 21.9269 31.4313
rtibia 13.8202
rfoot -17.8778 -30.6868
rtoes 3.31642
lfemur -3.0242 -21.6439 -25.9258
ltibia 24.3207
lfoot -23.041 20.8653
ltoes -9.08295
398
root 9.50165 15.5871 0.507789 -365.522 -85.7476 4.85977
lowerback 7.65083 1.24281 0.280515
upperback -3.96518 1.67381 -0.0830867
thorax -8.4763 0.78947 -0.492868
lowerneck -6.62512 -5.36093 -8.71991
upperneck 11.3611 -7.06614 5.91061
head 5.01836 -3.52285 2.78097
rclavicle -9.86469e-015 -1.14301e-015
rhumerus -48.6961 14.4788 -95.9642
rradius 37.6327
rwrist 17.1508
rhand 5.0288 -54.134
rfingers 7.12502
rthumb 30.3974 -441.649
lclavicle -9.86469e-015 -1.14301e-015
lhumerus -38.6111 7.03515 82.3132
lradius 38.314
lwrist -6.71808
lhand -4.05097 -28.6465
lfingers 7.12502
lthumb 21.705 0.156723
rfemur 5.04146 21.917 31.3695
rtibia 14.0358
rfoot -18.0313 -30.5363
rtoes 3.37294
lfemur -2.97126 -21.5874 -25.9514
ltibia 24.2055
lfoot -22.9122 20.8619
ltoes -9.24381
399
root 9.50662 15.5857 0.501158 -366.448 -85.9573 5.72273
lowerback 7.65245 1.25233 0.137693
upperback -3.96205 1.67472 -0.0290904
thorax -8.47972 0.799703 -0.355819
lowerneck -6.76705 -5.27899 -8.80159
upperneck 11.6194 -6.95793 5.98964
head 5.1194 -3.46862 2.82202
rclavicle 5.96975e-015 1.78906e-015
rhumerus -48.638 14.6119 -95.9563
rradius 37.7709
rwrist 17.8878
rhand 5.861 -54.2585
rfingers 7.12502
rthumb 31.1909 -441.623
lclavicle 5.96975e-015 1.78906e-015
lhumerus -38.5016 7.45163 82.2261
lradius 38.0883
lwrist -7.3414
lhand -4.11565 -28.5428
lfingers 7.12502
lthumb 21.6429 0.267568
rfemur 4.97449 21.8147 31.3141
rtibia 14.2033
rfoot -18.0133 -30.2924
rtoes 3.14973
lfemur -2.82127 -21.7123 -26.0444
ltibia 24.1165
lfoot -22.9252 21.1368
ltoes -9.15503
400
root 9.50956 15.5855 0.494828 -367.568 -86.1402 6.78521
lowerback 7.59414 1.19313 0.0251536
upperback -3.95634 1.58844 0.0483664
thorax -8.44523 0.766623 -0.196577
lowerneck -6.94567 -5.19623 -9.15735
upperneck 11.9535 -6.82701 6.14728
head 5.26097 -3.41047 2.93271
rclavicle 3.94463e-015 -6.95746e-016
rhumerus -47.6869 13.0298 -94.9512
rradius 36.7501
rwrist 20.2736
rhand 5.95628 -53.2168
rfingers 7.12502
rthumb 31.2817 -440.564
lclavicle 3.94463e-015 -6.95746e-016
lhumerus -38.5123 8.01029 82.1113
lradius 37.924
lwrist -7.90664
lhand -4.27936 -28.3641
lfingers 7.12502
lthumb 21.4857 0.464364
rfemur 4.92957 21.5832 31.2204
rtibia 14.3158
rfoot -17.8936 -29.9684
rtoes 2.84475
lfemur -2.67338 -21.8488 -26.1618
ltibia 24.0643
lfoot -22.9674 21.4403
ltoes -9.22682
401
root 9.51433 15.5847 0.490296 -368.231 -86.212 7.44881
lowerback 7.52844 1.11336 0.0675629
upperback -3.98238 1.4845 0.035753
thorax -8.43354 0.712976 -0.217221
lowerneck -6.88916 -5.12129 -9.42244
upperneck 12.018 -6.73536 6.38132
head 5.28093 -3.36563 3.05742
rclavicle 8.24956e-015 -4.17448e-015
rhumerus -48.3578 14.4612 -95.8177
rradius 37.7286
rwrist 19.3652
rhand 5.55095 -53.7297
rfingers 7.12502
rthumb 30.8953 -441.151
lclavicle 8.24956e-015 -4.17448e-015
lhumerus -38.5747 8.31323 81.962
lradius 37.8389
lwrist -8.22293
lhand -4.62255 -28.1125
lfingers 7.12502
lthumb 21.156 0.75314
rfemur 4.87392 21.5086 31.1567
rtibia 14.3802
rfoot -17.8553 -29.7459
rtoes 2.67406
lfemur -2.66458 -21.8464 -26.2125
ltibia 24.0537
lfoot -22.5504 21.8898
ltoes -11.6751
